<?xml version="1.0" standalone="no"?>
<!DOCTYPE svg PUBLIC "-//W3C//DTD SVG 20010904//EN"
 "http://www.w3.org/TR/2001/REC-SVG-20010904/DTD/svg10.dtd">
<svg version="1.0" xmlns="http://www.w3.org/2000/svg"
 width="512.000000pt" height="512.000000pt" viewBox="0 0 512.000000 512.000000"
 preserveAspectRatio="xMidYMid meet">
<metadata>
Created by potrace 1.14, written by Peter Selinger 2001-2017
</metadata>
<g transform="translate(0.000000,512.000000) scale(0.100000,-0.100000)"
fill="#000000" stroke="none">
<path d="M2420 4929 c-129 -17 -188 -32 -300 -77 -266 -107 -475 -302 -608
-568 -47 -92 -65 -145 -92 -269 -19 -87 -20 -129 -17 -1470 1 -759 6 -1393 10
-1410 62 -242 116 -356 245 -515 176 -219 459 -378 737 -415 58 -8 261 -8 320
0 458 61 841 394 964 837 11 40 23 87 27 103 4 17 9 343 11 725 l4 696 -976
-1 -975 0 0 660 c1 397 5 676 11 700 5 22 12 49 14 60 14 61 68 176 115 245
52 77 174 187 257 234 232 129 514 136 748 19 196 -99 340 -274 406 -494 21
-71 23 -94 26 -524 1 -247 3 -466 3 -486 l0 -36 183 1 182 1 0 510 -1 510 -26
98 c-90 328 -301 594 -593 744 -72 37 -207 89 -260 99 -109 21 -155 26 -250
28 -60 1 -135 -1 -165 -5z m173 -2839 c155 -3 203 -19 285 -94 28 -26 62 -74
67 -96 1 -3 6 -14 11 -25 5 -11 9 -56 9 -100 0 -133 -46 -194 -202 -270 l-95
-46 63 -57 c35 -31 77 -69 93 -84 16 -16 32 -28 35 -28 3 1 30 32 59 70 58 76
57 76 116 28 l28 -24 -59 -79 c-86 -114 -86 -114 -61 -164 25 -51 85 -104 135
-119 37 -11 38 -12 37 -59 l-1 -48 -129 -1 c-147 -1 -179 6 -207 40 l-20 25
-104 -137 c-58 -75 -108 -141 -113 -146 -9 -9 -89 43 -90 58 0 6 8 19 18 30
48 54 202 280 202 297 0 25 -90 197 -131 251 -82 106 -132 143 -184 134 -19
-3 -20 -12 -23 -196 -3 -210 2 -233 53 -246 23 -6 25 -11 25 -58 l0 -53 -202
1 -203 1 -1 47 c-1 44 0 47 36 63 22 10 41 27 44 39 3 11 6 222 6 468 l0 447
-26 20 c-14 11 -30 21 -36 23 -6 2 -11 24 -12 49 l-1 45 230 -2 c126 -1 283
-3 348 -4z"/>
<path d="M2330 1777 c0 -114 3 -207 8 -208 49 -6 147 -2 187 6 114 26 169 81
178 179 14 142 -71 211 -275 223 l-98 6 0 -206z"/>
</g>
</svg>
